<?xml version="1.0" standalone="no"?>
<!DOCTYPE svg PUBLIC "-//W3C//DTD SVG 20010904//EN"
 "http://www.w3.org/TR/2001/REC-SVG-20010904/DTD/svg10.dtd">
<svg version="1.0" xmlns="http://www.w3.org/2000/svg"
 width="500.000000pt" height="500.000000pt" viewBox="0 0 500.000000 500.000000"
 preserveAspectRatio="xMidYMid meet">
<metadata>
Created by potrace 1.11, written by Peter Selinger 2001-2013
</metadata>
<g transform="translate(0.000000,500.000000) scale(0.100000,-0.100000)"
fill="#000000" stroke="none">
<path d="M2410 4507 c-247 -22 -473 -149 -602 -338 -69 -101 -128 -249 -146
-369 -12 -83 -7 -279 11 -374 1 -8 -85 -12 -303 -16 -280 -5 -308 -7 -337 -25
-18 -10 -33 -25 -33 -31 0 -7 -6 -14 -12 -16 -10 -4 -13 -192 -13 -896 l0
-892 38 -37 37 -38 1448 0 c1433 0 1447 0 1470 20 13 11 32 37 43 57 18 36 19
69 19 892 0 512 -4 857 -9 861 -5 3 -12 18 -16 33 -3 16 -20 36 -40 49 -33 22
-41 23 -334 23 l-301 1 6 34 c40 251 10 469 -86 640 -171 303 -475 456 -840
422z m288 -212 c390 -124 575 -558 391 -922 -75 -150 -204 -263 -369 -324 -78
-30 -95 -32 -210 -32 -109 -1 -135 3 -206 26 -198 66 -361 229 -426 427 -28
87 -34 269 -12 355 22 84 65 170 119 242 162 216 455 310 713 228z m1142
-1852 l0 -788 -1337 2 c-736 2 -1339 5 -1340 8 -2 3 -3 354 -3 780 l0 776 283
-1 284 -1 43 -117 c50 -135 157 -353 243 -497 164 -273 410 -599 480 -637 23
-12 42 5 131 112 287 345 524 755 649 1121 4 14 40 16 278 18 151 1 276 4 278
7 2 2 6 4 8 4 2 0 3 -354 3 -787z"/>
<path d="M2440 4128 c-30 -4 -86 -24 -125 -43 -190 -93 -293 -306 -247 -509
60 -264 323 -417 585 -341 63 18 156 77 202 127 49 53 96 145 112 218 8 34 9
137 2 170 -15 73 -19 85 -46 139 -86 170 -285 269 -483 239z m-80 -133 c0 -9
-43 -65 -50 -65 -11 0 -9 39 2 46 7 5 8 2 4 -7 -4 -8 1 -4 10 9 15 20 34 30
34 17z m39 -49 c1 -28 -4 -51 -13 -63 -9 -10 -23 -27 -31 -38 -15 -19 -15 -17
-13 25 1 25 -2 51 -6 58 -7 12 34 62 52 62 4 0 9 -20 11 -44z m118 14 c-1 -11
-7 -20 -14 -20 -16 0 -16 7 0 25 16 19 16 18 14 -5z m186 -27 c5 -7 12 -11 17
-8 5 3 12 1 15 -5 4 -6 21 -8 41 -4 20 4 40 2 48 -5 7 -6 20 -9 28 -6 24 9 49
-19 53 -59 3 -31 1 -35 -11 -25 -10 8 -14 8 -14 0 0 -6 -7 -11 -15 -11 -8 0
-15 -5 -15 -11 0 -6 7 -17 15 -25 18 -19 19 -29 2 -46 -8 -7 -11 -20 -9 -28 5
-13 3 -13 -13 0 -17 14 -18 13 -11 -22 6 -31 4 -37 -14 -43 -13 -4 -20 -14
-18 -24 2 -10 -1 -18 -6 -19 -5 0 -13 -6 -17 -14 -6 -9 -9 -8 -9 7 0 37 -21
48 -46 24 -22 -21 -22 -21 -33 -1 -6 11 -26 29 -46 41 -38 22 -45 19 -19 -7
15 -14 15 -17 -2 -29 -27 -19 -30 -17 -55 40 -13 28 -25 55 -27 60 -2 4 4 7
14 7 14 0 15 3 6 12 -8 8 -16 5 -31 -13 -16 -19 -20 -21 -21 -7 0 9 -4 20 -10
23 -14 9 -50 -13 -50 -31 0 -9 -6 -14 -12 -12 -24 8 -19 37 10 63 19 17 29 36
30 56 1 42 28 72 53 58 11 -5 19 -16 19 -24 0 -11 5 -10 21 6 11 11 18 26 16
33 -3 7 -1 19 4 27 8 12 10 12 8 -1 -3 -32 1 -42 16 -36 9 3 15 0 15 -10 0 -8
4 -13 10 -9 5 3 7 12 4 20 -3 8 -1 30 6 49 8 26 15 33 28 29 9 -4 21 -13 25
-20z m-426 -25 c-3 -8 -6 -5 -6 6 -1 11 2 17 5 13 3 -3 4 -12 1 -19z m-89 -5
c5 -12 19 -19 46 -20 45 -2 59 -12 45 -33 -8 -11 -12 -12 -16 -2 -7 17 -23 15
-23 -3 0 -8 6 -15 13 -15 8 0 26 -13 40 -30 29 -32 34 -44 15 -38 -13 5 -68
-53 -68 -70 0 -5 -7 -12 -15 -16 -20 -7 -19 -43 0 -49 11 -4 10 -4 -2 -3 -10
1 -19 11 -21 23 -4 28 -39 40 -59 20 -19 -19 -10 -49 12 -41 10 4 15 0 15 -10
0 -9 5 -16 11 -16 5 0 8 -4 4 -9 -7 -12 26 -31 54 -31 12 0 38 -15 58 -32 21
-18 47 -38 57 -44 30 -16 29 -26 -4 -62 -16 -18 -30 -39 -30 -46 0 -7 -9 -21
-20 -31 -12 -10 -18 -25 -15 -32 2 -8 0 -11 -5 -8 -12 7 -30 72 -30 109 0 15
-11 41 -25 57 -18 23 -23 37 -18 59 4 23 2 30 -11 30 -9 0 -16 4 -16 9 0 5
-20 22 -45 38 -32 20 -45 35 -45 51 0 12 -3 22 -7 22 -5 0 -8 18 -8 39 0 27 7
48 25 68 15 18 24 41 25 64 1 58 45 94 63 52z m62 7 c0 -5 -2 -10 -4 -10 -3 0
-8 5 -11 10 -3 6 -1 10 4 10 6 0 11 -4 11 -10z m160 -54 c0 -3 -4 -8 -10 -11
-5 -3 -10 -1 -10 4 0 6 5 11 10 11 6 0 10 -2 10 -4z m53 -72 c-4 -12 -8 -13
-14 -3 -9 15 -2 32 11 24 5 -3 6 -13 3 -21z m434 -74 c-1 -11 -7 -22 -14 -25
-10 -3 -11 0 -5 13 5 9 7 23 4 31 -3 8 0 11 6 7 6 -3 10 -15 9 -26z m-412 -30
c3 -5 19 -10 35 -10 23 0 32 -7 46 -35 9 -20 28 -41 41 -48 l24 -13 -23 -29
c-13 -16 -22 -36 -21 -45 1 -8 -8 -35 -20 -60 -27 -54 -56 -61 -69 -15 -8 29
-19 88 -20 113 -1 6 -11 12 -22 13 -58 2 -76 15 -76 57 0 42 86 102 105 72z
m-222 -77 c-7 -2 -19 -2 -25 0 -7 3 -2 5 12 5 14 0 19 -2 13 -5z m567 -52 c0
-12 -20 -25 -27 -18 -7 7 6 27 18 27 5 0 9 -4 9 -9z m-45 -21 c3 -5 1 -10 -4
-10 -6 0 -11 5 -11 10 0 6 2 10 4 10 3 0 8 -4 11 -10z m135 -16 c0 -20 -13
-17 -27 5 -10 16 -9 18 8 14 10 -3 19 -12 19 -19z m-310 -64 c-5 -22 -8 -27
-9 -13 -1 21 9 56 14 51 2 -2 0 -19 -5 -38z m288 24 c7 -5 -9 -39 -29 -64 -14
-16 -19 -19 -15 -7 3 9 0 18 -7 18 -17 2 -20 1 -39 -6 -28 -11 -22 22 8 50 20
19 33 23 53 18 14 -3 28 -7 29 -9z"/>
<path d="M2214 3827 c-3 -10 0 -24 7 -33 11 -14 13 -14 22 1 6 12 4 22 -7 33
-14 14 -16 14 -22 -1z"/>
<path d="M510 1300 c0 -80 17 -124 52 -134 28 -7 3845 -8 3873 0 38 10 65 67
65 139 l0 65 -865 0 -865 0 0 -30 c0 -22 -5 -31 -22 -35 -13 -3 -133 -4 -268
-3 l-245 3 -3 33 -3 32 -860 0 -859 0 0 -70z"/>
</g>
</svg>
